{
	"asset":{
		"generator":"Khronos glTF Blender I/O v4.2.57",
		"version":"2.0"
	},
	"extensionsUsed":[
		"KHR_materials_specular"
	],
	"scene":0,
	"scenes":[
		{
			"name":"Scene",
			"nodes":[
				5
			]
		}
	],
	"nodes":[
		{
			"mesh":0,
			"name":"Shadow",
			"scale":[
				1.0327566862106323,
				1.0327566862106323,
				1.0327566862106323
			],
			"translation":[
				0,
				0.0012515084818005562,
				0
			]
		},
		{
			"mesh":1,
			"name":"Wheel_FL",
			"scale":[
				0.6648768782615662,
				0.6839156150817871,
				0.6839156150817871
			],
			"translation":[
				0.7839999794960022,
				0.29177799820899963,
				1.231529951095581
			]
		},
		{
			"mesh":1,
			"name":"Wheel_FR",
			"rotation":[
				0,
				-1,
				0,
				1.6292068494294654e-07
			],
			"scale":[
				0.6648768782615662,
				0.6839156150817871,
				0.6839156150817871
			],
			"translation":[
				-0.7839999794960022,
				0.2895336151123047,
				1.2315300703048706
			]
		},
		{
			"mesh":1,
			"name":"Wheel_RL",
			"scale":[
				0.6648768782615662,
				0.6839156150817871,
				0.6839156150817871
			],
			"translation":[
				0.796999990940094,
				0.2884019911289215,
				-1.2630000114440918
			]
		},
		{
			"mesh":1,
			"name":"Wheel_RR",
			"rotation":[
				0,
				-1,
				0,
				1.9470718370939721e-07
			],
			"scale":[
				0.6648768782615662,
				0.6839156150817871,
				0.6839156150817871
			],
			"translation":[
				-0.796999990940094,
				0.2883986830711365,
				-1.2630037069320679
			]
		},
		{
			"children":[
				0,
				1,
				2,
				3,
				4
			],
			"mesh":2,
			"name":"BX300"
		}
	],
	"materials":[
		{
			"alphaMode":"MASK",
			"extensions":{
				"KHR_materials_specular":{
					"specularTexture":{
						"index":0
					}
				}
			},
			"name":"GT1",
			"pbrMetallicRoughness":{
				"baseColorTexture":{
					"index":1
				},
				"metallicFactor":0,
				"roughnessFactor":0.10000000149011612
			}
		}
	],
	"meshes":[
		{
			"name":"Plane.032",
			"primitives":[
				{
					"attributes":{
						"POSITION":0,
						"NORMAL":1,
						"TEXCOORD_0":2,
						"COLOR_0":3,
						"COLOR_1":4
					},
					"indices":5,
					"material":0
				}
			]
		},
		{
			"name":"Wheel_PS1",
			"primitives":[
				{
					"attributes":{
						"POSITION":6,
						"NORMAL":7,
						"TEXCOORD_0":8,
						"COLOR_0":9,
						"COLOR_1":10
					},
					"indices":11,
					"material":0
				}
			]
		},
		{
			"name":"BX300_Body.001",
			"primitives":[
				{
					"attributes":{
						"POSITION":12,
						"NORMAL":13,
						"TEXCOORD_0":14,
						"COLOR_0":15,
						"COLOR_1":16
					},
					"indices":17,
					"material":0
				}
			]
		}
	],
	"textures":[
		{
			"sampler":0,
			"source":0
		},
		{
			"sampler":1,
			"source":1
		}
	],
	"images":[
		{
			"mimeType":"image/png",
			"name":"HoraiBX300_PS1_Spec",
			"uri":"HoraiBX300_PS1_Spec.png"
		},
		{
			"mimeType":"image/png",
			"name":"HoraiBX300_PS1_Green",
			"uri":"HoraiBX300_PS1_Green.png"
		}
	],
	"accessors":[
		{
			"bufferView":0,
			"componentType":5126,
			"count":10,
			"max":[
				0.8828364610671997,
				0,
				2.1786749362945557
			],
			"min":[
				-0.8828364610671997,
				0,
				-2.2135462760925293
			],
			"type":"VEC3"
		},
		{
			"bufferView":1,
			"componentType":5126,
			"count":10,
			"type":"VEC3"
		},
		{
			"bufferView":2,
			"componentType":5126,
			"count":10,
			"type":"VEC2"
		},
		{
			"bufferView":3,
			"componentType":5121,
			"count":10,
			"normalized":true,
			"type":"VEC4"
		},
		{
			"bufferView":4,
			"componentType":5126,
			"count":10,
			"type":"VEC3"
		},
		{
			"bufferView":5,
			"componentType":5123,
			"count":24,
			"type":"SCALAR"
		},
		{
			"bufferView":6,
			"componentType":5126,
			"count":105,
			"max":[
				0.17571578919887543,
				0.4759359359741211,
				0.4759359359741211
			],
			"min":[
				-0.21232597529888153,
				-0.4759359657764435,
				-0.4759359359741211
			],
			"type":"VEC3"
		},
		{
			"bufferView":7,
			"componentType":5126,
			"count":105,
			"type":"VEC3"
		},
		{
			"bufferView":8,
			"componentType":5126,
			"count":105,
			"type":"VEC2"
		},
		{
			"bufferView":9,
			"componentType":5121,
			"count":105,
			"normalized":true,
			"type":"VEC4"
		},
		{
			"bufferView":10,
			"componentType":5126,
			"count":105,
			"type":"VEC3"
		},
		{
			"bufferView":11,
			"componentType":5123,
			"count":234,
			"type":"SCALAR"
		},
		{
			"bufferView":12,
			"componentType":5126,
			"count":426,
			"max":[
				0.9548635482788086,
				1.2812914848327637,
				2.2072858810424805
			],
			"min":[
				-0.9548635482788086,
				0.13047602772712708,
				-2.283177614212036
			],
			"type":"VEC3"
		},
		{
			"bufferView":13,
			"componentType":5126,
			"count":426,
			"type":"VEC3"
		},
		{
			"bufferView":14,
			"componentType":5126,
			"count":426,
			"type":"VEC2"
		},
		{
			"bufferView":15,
			"componentType":5121,
			"count":426,
			"normalized":true,
			"type":"VEC4"
		},
		{
			"bufferView":16,
			"componentType":5126,
			"count":426,
			"type":"VEC3"
		},
		{
			"bufferView":17,
			"componentType":5123,
			"count":1038,
			"type":"SCALAR"
		}
	],
	"bufferViews":[
		{
			"buffer":0,
			"byteLength":120,
			"byteOffset":0,
			"target":34962
		},
		{
			"buffer":0,
			"byteLength":120,
			"byteOffset":120,
			"target":34962
		},
		{
			"buffer":0,
			"byteLength":80,
			"byteOffset":240,
			"target":34962
		},
		{
			"buffer":0,
			"byteLength":40,
			"byteOffset":320,
			"target":34962
		},
		{
			"buffer":0,
			"byteLength":120,
			"byteOffset":360,
			"target":34962
		},
		{
			"buffer":0,
			"byteLength":48,
			"byteOffset":480,
			"target":34963
		},
		{
			"buffer":0,
			"byteLength":1260,
			"byteOffset":528,
			"target":34962
		},
		{
			"buffer":0,
			"byteLength":1260,
			"byteOffset":1788,
			"target":34962
		},
		{
			"buffer":0,
			"byteLength":840,
			"byteOffset":3048,
			"target":34962
		},
		{
			"buffer":0,
			"byteLength":420,
			"byteOffset":3888,
			"target":34962
		},
		{
			"buffer":0,
			"byteLength":1260,
			"byteOffset":4308,
			"target":34962
		},
		{
			"buffer":0,
			"byteLength":468,
			"byteOffset":5568,
			"target":34963
		},
		{
			"buffer":0,
			"byteLength":5112,
			"byteOffset":6036,
			"target":34962
		},
		{
			"buffer":0,
			"byteLength":5112,
			"byteOffset":11148,
			"target":34962
		},
		{
			"buffer":0,
			"byteLength":3408,
			"byteOffset":16260,
			"target":34962
		},
		{
			"buffer":0,
			"byteLength":1704,
			"byteOffset":19668,
			"target":34962
		},
		{
			"buffer":0,
			"byteLength":5112,
			"byteOffset":21372,
			"target":34962
		},
		{
			"buffer":0,
			"byteLength":2076,
			"byteOffset":26484,
			"target":34963
		}
	],
	"samplers":[
		{
			"magFilter":9729,
			"minFilter":9987
		},
		{
			"magFilter":9728,
			"minFilter":9984
		}
	],
	"buffers":[
		{
			"byteLength":28560,
			"uri":"Horizon%2020BX_PS1_Sketchfab.bin"
		}
	]
}
